<?xml version="1.0" encoding="utf-8"?>
<!-- Generator: Adobe Illustrator 15.1.0, SVG Export Plug-In . SVG Version: 6.00 Build 0)  -->
<!DOCTYPE svg PUBLIC "-//W3C//DTD SVG 1.1//EN" "http://www.w3.org/Graphics/SVG/1.1/DTD/svg11.dtd">
<svg version="1.1" id="Layer_2" xmlns="http://www.w3.org/2000/svg" xmlns:xlink="http://www.w3.org/1999/xlink" x="0px" y="0px"
	 width="137.04px" height="133.8px" viewBox="0 0 137.04 133.8" enable-background="new 0 0 137.04 133.8" xml:space="preserve">
<circle fill="#FF0000" cx="82.133" cy="63.062" r="2.398"/>
<circle fill="#FF0000" cx="108.93" cy="7.516" r="2.398"/>
<circle fill="#FF0000" cx="112.57" cy="7.516" r="2.398"/>
<circle fill="#FF0000" cx="71.523" cy="23.156" r="2.398"/>
<circle fill="#FF0000" cx="74.992" cy="23.156" r="2.398"/>
<circle fill="#FF0000" cx="27.93" cy="23.016" r="2.398"/>
<circle fill="#FF0000" cx="31.352" cy="23.016" r="2.398"/>
<circle fill="#FF0000" cx="34.82" cy="23.016" r="2.398"/>
<circle fill="#FF0000" cx="38.195" cy="23.016" r="2.398"/>
<circle fill="#FF0000" cx="41.523" cy="23.094" r="2.398"/>
<circle fill="#FF0000" cx="44.992" cy="23.016" r="2.398"/>
<circle fill="#FF0000" cx="48.211" cy="23.016" r="2.398"/>
<circle fill="#FF0000" cx="51.867" cy="23.094" r="2.398"/>
<circle fill="#FF0000" cx="10.961" cy="30.938" r="2.398"/>
<circle fill="#FF0000" cx="14.414" cy="30.938" r="2.398"/>
<circle fill="#FF0000" cx="124.898" cy="63.344" r="2.398"/>
<circle fill="#FF0000" cx="127.914" cy="63.234" r="2.398"/>
<circle fill="#FF0000" cx="10.758" cy="62.891" r="2.398"/>
<circle fill="#FF0000" cx="44.773" cy="63.016" r="2.398"/>
<circle fill="#FF0000" cx="48.164" cy="63.016" r="2.398"/>
<circle fill="#FF0000" cx="27.812" cy="86.672" r="2.398"/>
<circle fill="#FF0000" cx="31.172" cy="86.672" r="2.398"/>
<circle fill="#FF0000" cx="61.367" cy="86.734" r="2.398"/>
<circle fill="#FF0000" cx="64.867" cy="86.734" r="2.398"/>
<circle fill="#FF0000" cx="95.133" cy="86.859" r="2.398"/>
<circle fill="#FF0000" cx="98.602" cy="86.859" r="2.398"/>
<circle fill="#FF0000" cx="108.422" cy="102.756" r="2.398"/>
<circle fill="#FF0000" cx="112" cy="102.756" r="2.398"/>
<circle fill="#FF0000" cx="34.391" cy="118.464" r="2.398"/>
<circle fill="#FF0000" cx="37.922" cy="118.464" r="2.398"/>
<circle fill="#FF0000" cx="41.203" cy="118.464" r="2.398"/>
<circle fill="#FF0000" cx="44.469" cy="118.464" r="2.398"/>
<circle fill="#FF0000" cx="47.906" cy="118.37" r="2.398"/>
<circle fill="#FF0000" cx="51.562" cy="118.464" r="2.398"/>
<circle fill="#FF0000" cx="81.789" cy="118.626" r="2.398"/>
<circle fill="#FF0000" cx="78.758" cy="23.156" r="2.398"/>
<circle fill="#FF0000" cx="82.156" cy="23.156" r="2.398"/>
<circle fill="#FF0000" cx="85.484" cy="23.156" r="2.398"/>
<circle fill="#FF0000" cx="14.195" cy="62.891" r="2.398"/>
<circle fill="#FF0000" cx="85.188" cy="118.626" r="2.398"/>
</svg>
