<?xml version="1.0" encoding="utf-8"?>
<!DOCTYPE svg PUBLIC "-//W3C//DTD SVG 1.1//EN" "http://www.w3.org/Graphics/SVG/1.1/DTD/svg11.dtd">
<svg version="1.1" id="Layer_2" xmlns="http://www.w3.org/2000/svg" xmlns:xlink="http://www.w3.org/1999/xlink" x="0px" y="0px"
	 width="1142.5px" height="1115px" viewBox="0 0 1142.5 1115" enable-background="new 0 0 1142.5 1115" xml:space="preserve">
<circle fill="#F00" cx="686.10938" cy="525.43799" r="19.60938"/>
<circle fill="#F00" cx="1042.10938" cy="527.43799" r="19.60938"/>
<circle fill="#F00" cx="1067.10938" cy="526.43799" r="19.60938"/>
<circle fill="#F00" cx="403.10938" cy="524.43799" r="19.60938"/>
<circle fill="#F00" cx="374.10938" cy="524.43799" r="19.60938"/>
<circle fill="#F00" cx="120.10938" cy="523.43799" r="19.60938"/>
<circle fill="#F00" cx="91.10938" cy="523.43799" r="19.60938"/>
<circle fill="#F00" cx="92.10938" cy="257.43799" r="19.60938"/>
<circle fill="#F00" cx="122.10938" cy="257.43799" r="19.60938"/>
<circle fill="#F00" cx="234.10938" cy="191.43799" r="19.60938"/>
<circle fill="#F00" cx="263.10938" cy="191.43799" r="19.60938"/>
<circle fill="#F00" cx="292.10938" cy="191.43799" r="19.60938"/>
<circle fill="#F00" cx="319.10938" cy="191.43799" r="19.60938"/>
<circle fill="#F00" cx="347.10938" cy="191.43799" r="19.60938"/>
<circle fill="#F00" cx="376.10938" cy="191.43799" r="19.60938"/>
<circle fill="#F00" cx="404.10938" cy="191.43799" r="19.60938"/>
<circle fill="#F00" cx="434.10938" cy="191.43799" r="19.60938"/>
<circle fill="#F00" cx="598.10938" cy="192.43799" r="19.60938"/>
<circle fill="#F00" cx="626.10938" cy="192.43799" r="19.60938"/>
<circle fill="#F00" cx="658.10938" cy="192.43799" r="19.60938"/>
<circle fill="#F00" cx="687.10938" cy="192.43799" r="19.60938"/>
<circle fill="#F00" cx="714.10938" cy="193.43799" r="19.60938"/>
<circle fill="#F00" cx="909.10938" cy="62.43799" r="19.60938"/>
<circle fill="#F00" cx="940.10938" cy="62.43799" r="19.60938"/>
<circle fill="#F00" cx="793.10938" cy="724.4375" r="19.60938"/>
<circle fill="#F00" cx="822.10938" cy="724.4375" r="19.60938"/>
<circle fill="#F00" cx="905.10938" cy="855.4375" r="19.60938"/>
<circle fill="#F00" cx="935.10938" cy="855.4375" r="19.60938"/>
<circle fill="#F00" cx="513.10938" cy="722.4375" r="19.60938"/>
<circle fill="#F00" cx="541.10938" cy="722.4375" r="19.60938"/>
<circle fill="#F00" cx="232.10938" cy="722.4375" r="19.60938"/>
<circle fill="#F00" cx="288.10938" cy="986.4375" r="19.60938"/>
<circle fill="#F00" cx="318.10938" cy="986.4375" r="19.60938"/>
<circle fill="#F00" cx="346.10938" cy="986.4375" r="19.60938"/>
<circle fill="#F00" cx="373.10938" cy="986.4375" r="19.60938"/>
<circle fill="#F00" cx="401.10938" cy="986.4375" r="19.60938"/>
<circle fill="#F00" cx="431.10938" cy="986.4375" r="19.60938"/>
<circle fill="#F00" cx="683.10938" cy="988.4375" r="19.60938"/>
<circle fill="#F00" cx="711.10938" cy="988.4375" r="19.60938"/>
<circle fill="#F00" cx="262.10938" cy="722.4375" r="19.60938"/>
</svg>
